<?xml version="1.0" standalone="no"?>
<!DOCTYPE svg PUBLIC "-//W3C//DTD SVG 20010904//EN"
 "http://www.w3.org/TR/2001/REC-SVG-20010904/DTD/svg10.dtd">
<svg version="1.0" xmlns="http://www.w3.org/2000/svg"
 width="58.000000pt" height="76.000000pt" viewBox="0 0 58.000000 76.000000"
 preserveAspectRatio="xMidYMid meet">

<g transform="translate(0.000000,76.000000) scale(0.100000,-0.100000)"
fill="#000000" stroke="none">
<path d="M182 685 c-81 -42 -131 -121 -131 -210 -1 -57 46 -159 133 -289 96
-145 101 -149 133 -111 48 60 142 206 175 272 27 56 33 80 33 134 0 56 -5 73
-30 115 -66 106 -202 145 -313 89z m178 -77 c109 -57 108 -218 -3 -268 -54
-25 -88 -25 -136 0 -52 26 -81 75 -81 136 0 64 28 110 83 134 55 25 83 25 137
-2z"/>
<path d="M235 590 c-69 -34 -92 -100 -61 -175 17 -41 60 -65 116 -65 55 0 94
22 114 64 34 73 11 142 -59 176 -51 25 -60 25 -110 0z m141 -45 c19 -15 18
-16 -10 -41 -20 -18 -36 -24 -52 -20 -21 6 -23 3 -26 -46 -3 -56 -28 -83 -28
-30 0 21 -6 31 -20 35 -11 3 -24 16 -29 30 -5 14 -15 28 -21 32 -33 20 34 34
71 14 17 -9 25 -6 44 15 28 30 43 32 71 11z"/>
<path d="M320 514 c0 -14 3 -14 15 -4 8 7 15 14 15 16 0 2 -7 4 -15 4 -8 0
-15 -7 -15 -16z"/>
<path d="M229 488 c4 -12 13 -24 19 -26 18 -6 14 35 -4 42 -23 9 -24 8 -15
-16z"/>
</g>
</svg>
