<?xml version="1.0" standalone="no"?>
<!DOCTYPE svg PUBLIC "-//W3C//DTD SVG 20010904//EN"
 "http://www.w3.org/TR/2001/REC-SVG-20010904/DTD/svg10.dtd">
<svg version="1.0" xmlns="http://www.w3.org/2000/svg"
 width="512.000000pt" height="512.000000pt" viewBox="0 0 512.000000 512.000000"
 preserveAspectRatio="xMidYMid meet">

<g transform="translate(0.000000,512.000000) scale(0.100000,-0.100000)"
fill="#000000" stroke="none">
<path d="M2405 4794 c-90 -10 -261 -46 -347 -75 -543 -177 -962 -644 -1078
-1203 -45 -215 -45 -409 0 -591 132 -537 606 -1365 1347 -2352 180 -240 192
-253 233 -253 40 0 53 14 218 233 594 789 1055 1540 1250 2033 123 312 160
495 142 713 -31 386 -178 719 -437 991 -243 256 -529 413 -870 480 -105 21
-362 34 -458 24z m440 -597 c184 -52 323 -132 451 -261 172 -172 266 -377 296
-651 46 -406 -188 -824 -567 -1013 -297 -149 -633 -149 -929 0 -105 52 -175
103 -265 191 -170 168 -275 381 -303 619 -20 167 13 373 86 547 120 284 385
504 691 574 39 9 79 18 90 21 11 3 97 3 190 2 146 -3 183 -7 260 -29z"/>
<path d="M2397 4064 c-422 -76 -742 -480 -713 -899 19 -290 145 -526 361 -681
275 -197 679 -210 983 -33 73 44 237 208 281 282 75 127 131 332 131 478 0
214 -97 446 -255 605 -206 209 -497 301 -788 248z m670 -335 c165 -51 247
-129 200 -190 -7 -9 -37 -31 -67 -49 -80 -49 -149 -105 -199 -161 -95 -108
-222 -127 -332 -47 -40 29 -41 29 -61 11 -11 -10 -30 -36 -42 -58 -20 -38 -21
-57 -26 -348 l-5 -309 -29 -25 c-23 -19 -36 -23 -59 -19 -66 13 -67 18 -67
235 l0 196 -82 0 c-66 0 -91 5 -124 22 -56 30 -107 92 -133 161 -27 76 -81
165 -142 236 -58 68 -66 93 -45 134 20 38 57 50 181 59 171 11 314 -33 403
-125 l47 -49 48 36 c30 23 47 43 47 57 0 35 58 141 96 173 102 90 230 109 391
60z"/>
<path d="M2848 3584 c-115 -35 -147 -164 -46 -189 24 -6 38 4 126 87 l99 93
-36 12 c-48 15 -86 15 -143 -3z"/>
<path d="M2104 3379 c15 -24 43 -78 62 -119 55 -122 57 -124 96 -134 95 -24
145 58 99 160 -35 76 -109 119 -229 131 l-55 6 27 -44z"/>
</g>
</svg>
